<?xml version="1.0" encoding="UTF-8"?>
<!DOCTYPE svg PUBLIC "-//W3C//DTD SVG 1.1//EN" "http://www.w3.org/Graphics/SVG/1.1/DTD/svg11.dtd">
<!-- Creator: CorelDRAW 2020 (64-Bit) -->
<svg xmlns="http://www.w3.org/2000/svg" xml:space="preserve" width="100mm" height="30mm" version="1.1" style="shape-rendering:geometricPrecision; text-rendering:geometricPrecision; image-rendering:optimizeQuality; fill-rule:evenodd; clip-rule:evenodd"
viewBox="0 0 10000 3000"
 xmlns:xlink="http://www.w3.org/1999/xlink"
 xmlns:xodm="http://www.corel.com/coreldraw/odm/2003">
 <defs>
  <style type="text/css">
   <![CDATA[
    .str3 {stroke:#630200;stroke-width:105.83;stroke-miterlimit:22.9256}
    .str0 {stroke:#630200;stroke-width:52.92;stroke-miterlimit:22.9256}
    .str1 {stroke:#630200;stroke-width:20;stroke-miterlimit:22.9256}
    .str2 {stroke:#630200;stroke-width:7.62;stroke-miterlimit:22.9256}
    .fil0 {fill:none}
    .fil2 {fill:none;fill-rule:nonzero}
    .fil1 {fill:#630200;fill-rule:nonzero}
    .fil3 {fill:#630200;fill-rule:nonzero}
   ]]>
  </style>
 </defs>
 <g id="Слой_x0020_1">
  <metadata id="CorelCorpID_0Corel-Layer"/>
  <rect class="fil0" x="-3.8" y="-1494.33" width="10000" height="6000"/>
  <g id="_2155987237792">
   <path class="fil1 str0" d="M77.44 2296.13l0 -1794.91 673.52 0c137.03,0 246.91,17.96 330.05,54.32 82.73,36.34 147.49,92.32 194.3,167.96 47.21,75.21 70.6,154.16 70.6,236.89 0,76.47 -20.88,148.73 -62.25,216.42 -41.36,67.68 -104.03,122.42 -188.02,164.21 108.64,31.76 192.2,86.06 250.27,162.94 58.49,76.45 87.74,167.13 87.74,271.57 0,84.41 -17.96,162.54 -53.47,234.82 -35.51,72.28 -79.39,127.85 -131.62,167.13 -52.23,38.85 -117.82,68.52 -196.36,88.57 -78.98,20.06 -175.49,30.08 -289.97,30.08l-684.79 0zm238.15 -1040.35l388.15 0c105.29,0 180.91,-7.1 226.45,-20.88 60.58,-17.98 106.13,-48.06 136.63,-89.83 30.5,-41.79 45.95,-94.02 45.95,-157.1 0,-59.75 -14.21,-112.4 -43.03,-157.52 -28.4,-45.54 -69.36,-76.87 -122.42,-93.59 -53.06,-16.71 -144.13,-25.06 -272.83,-25.06l-358.9 0 0 543.98zm0 829.78l447.05 0c76.89,0 130.79,-2.93 162.12,-8.79 54.32,-9.59 100.27,-25.9 137.05,-48.87 36.75,-22.98 66.83,-56.42 90.66,-100.28 23.8,-43.88 35.51,-94.43 35.51,-151.67 0,-67.25 -17.13,-125.34 -51.81,-175.05 -34.25,-49.72 -81.88,-84.4 -142.9,-104.46 -60.58,-20.05 -148.32,-30.08 -262.37,-30.08l-415.31 0 0 619.2zm1333.65 -439.97c0,-240.22 66.86,-418.21 200.97,-533.96 111.56,-96.09 248.18,-144.13 409.03,-144.13 178.42,0 324.65,58.48 438.29,175.48 113.22,116.56 170.05,278.26 170.05,484.23 0,167.14 -25.07,298.32 -75.21,394 -50.14,95.67 -123.25,170.05 -219.34,223.11 -95.69,53.08 -200.55,79.39 -313.79,79.39 -182.15,0 -329.23,-58.07 -441.62,-174.65 -112.4,-116.56 -168.38,-284.52 -168.38,-503.47zm225.62 0.44c0,166.28 36.36,290.79 109.06,373.08 73.11,82.73 164.6,124.1 275.32,124.1 109.47,0 200.55,-41.37 273.68,-124.51 72.7,-83.14 109.04,-209.73 109.04,-379.78 0,-160.44 -36.77,-282.03 -109.89,-364.34 -73.11,-82.73 -164.19,-124.08 -272.83,-124.08 -110.72,0 -202.21,40.94 -275.32,123.25 -72.7,82.31 -109.06,206.39 -109.06,372.28zm1168.61 -0.44c0,-240.22 66.86,-418.21 200.97,-533.96 111.56,-96.09 248.18,-144.13 409.03,-144.13 178.42,0 324.65,58.48 438.29,175.48 113.22,116.56 170.05,278.26 170.05,484.23 0,167.14 -25.07,298.32 -75.21,394 -50.14,95.67 -123.25,170.05 -219.34,223.11 -95.69,53.08 -200.55,79.39 -313.79,79.39 -182.15,0 -329.23,-58.07 -441.62,-174.65 -112.4,-116.56 -168.38,-284.52 -168.38,-503.47zm225.62 0.44c0,166.28 36.36,290.79 109.06,373.08 73.11,82.73 164.6,124.1 275.32,124.1 109.47,0 200.55,-41.37 273.68,-124.51 72.7,-83.14 109.04,-209.73 109.04,-379.78 0,-160.44 -36.77,-282.03 -109.89,-364.34 -73.11,-82.73 -164.19,-124.08 -272.83,-124.08 -110.72,0 -202.21,40.94 -275.32,123.25 -72.7,82.31 -109.06,206.39 -109.06,372.28zm1252.17 650.1l0 -1794.91c157.2,119.72 208.01,185.45 220.6,1022.38 270.23,-352.67 392.24,-616.72 771.56,-659.1l-618.64 766.9c201.95,9.83 426.28,288.86 703.6,664.73l-271.57 0 -432.03 -664.73 -152.92 148.73 0 516 -220.6 0zm1305.24 0l0 -1130.59 -195.53 0c-4.03,-81.88 115.65,-159.45 195.53,-170.47l0 -137.88c0,-87.32 7.52,-152.09 22.98,-194.29 57.01,-151.89 182.92,-212.27 338.19,-199.34 134.76,11.21 228.74,115.33 220.84,271.75 -93.5,-51.21 -222.46,-120.06 -322.54,-18.5 -27.57,28.4 -41.37,81.46 -41.37,159.18l0 119.08 253.19 0c-7.4,115.59 -99.68,157.16 -250.68,170.47l0 1130.59 -220.61 0zm561.13 -650.54c0,-240.22 66.85,-418.21 200.96,-533.96 111.56,-96.09 248.18,-144.13 409.03,-144.13 178.42,0 324.65,58.48 438.29,175.48 113.22,116.56 170.05,278.26 170.05,484.23 0,167.14 -25.07,298.32 -75.21,394 -50.13,95.67 -123.25,170.05 -219.34,223.11 -95.69,53.08 -200.54,79.39 -313.79,79.39 -182.15,0 -329.23,-58.07 -441.62,-174.65 -112.39,-116.56 -168.37,-284.52 -168.37,-503.47zm225.61 0.44c0,166.28 36.36,290.79 109.06,373.08 73.12,82.73 164.61,124.1 275.32,124.1 109.48,0 200.55,-41.37 273.68,-124.51 72.7,-83.14 109.04,-209.73 109.04,-379.78 0,-160.44 -36.77,-282.03 -109.88,-364.34 -73.12,-82.73 -164.19,-124.08 -272.84,-124.08 -110.71,0 -202.2,40.94 -275.32,123.25 -72.7,82.31 -109.06,206.39 -109.06,372.28zm1248.84 650.1l0 -1301.06c102.99,1.13 224.51,-8.59 221.98,203.63 62.08,-174.1 266.18,-236.14 365.37,-214.8 322.24,69.34 257.42,335.35 41.04,256.84 -79.59,-25.72 -106.97,-45.12 -160.44,-45.12 -48.05,0 -91.1,14.63 -129.11,43.45 -38.02,28.83 -65.18,68.94 -81.47,120.33 -24.65,78.12 -36.77,163.79 -36.77,256.96l0 679.77 -220.6 0zm1734.53 -227.19c-71.81,180.43 -260.91,254.77 -420.94,254.77 -103.61,0 -198.87,-28.41 -285.37,-85.65 -86.89,-56.83 -154.16,-136.63 -202.2,-238.57 -47.63,-102.36 -71.46,-219.77 -71.46,-352.63 0,-129.53 21.73,-246.94 64.76,-352.64 43.45,-105.29 108.21,-186.34 194.71,-242.32 86.06,-56.41 183,-84.4 289.53,-84.4 78.55,0 148.32,16.71 209.34,49.72 60.99,33 110.71,76.45 149.14,129.51 -13.06,-431.07 52.14,-686.35 226.49,-813.08l-5.88 1962.48c-197.16,0 -262.12,31.84 -148.12,-227.19zm-754.35 -421.67c0,166.28 35.09,290.38 105.7,372.69 70.19,82.32 153.33,123.25 249.03,123.25 96.5,0 178.4,-39.28 246.09,-117.82 67.27,-78.54 101.1,-198.46 101.1,-359.74 0,-177.14 -34.27,-307.5 -103.2,-390.64 -68.51,-83.16 -153.33,-124.51 -254.02,-124.51 -98.2,0 -180.08,39.69 -246.11,119.5 -65.59,79.78 -98.59,205.56 -98.59,377.27z"/>
   <path class="fil2 str1" d="M95.5 2287.68l69.94 157.13c442.47,1.44 1016.6,37.76 1157.67,-65.28 109.26,-66.11 1.05,-277.77 -173.8,-186.34"/>
   <path class="fil2 str1" d="M1098.42 642.59c416.87,52.27 482.49,469.63 216.94,688.01 361.73,168.75 375.14,781.66 45.67,1003.98"/>
   <path class="fil2 str2" d="M146.05 2401.22c896.81,16.49 1046.96,-2.09 1214.79,-138.29"/>
   <path class="fil2 str2" d="M126.57 2320.06c892.23,13.4 961.57,-1.01 1179.51,-128.13"/>
   <path class="fil2 str2" d="M130.48 2366.25c917.89,-14.02 991.51,19.32 1206.39,-146.67"/>
   <path class="fil2 str2" d="M1098.42 642.59c365.73,143.21 333.77,542.94 38.93,696.93 428.36,153.92 410.12,629.81 168.73,852.41"/>
   <path class="fil2 str2" d="M1098.42 642.59c439.71,199.8 326.13,528.2 90.27,693.81 402.24,175.68 388.8,678.06 148.18,883.18"/>
   <path class="fil2 str2" d="M1098.42 642.59c461.5,167.13 358.78,520.09 138.16,694.38 402.24,175.68 364.87,720.83 124.26,925.96"/>
   <ellipse class="fil2 str3" cx="2266.42" cy="1628.73" rx="130.57" ry="182.76"/>
   <ellipse class="fil2 str3" cx="3652.62" cy="1630.91" rx="130.57" ry="182.76"/>
   <path class="fil3 str0" d="M6047.13 2123.73c0,96.41 8.56,246.05 -22.98,332.17 -53.16,141.63 -190.42,203.98 -335.5,191.77 -105.49,-8.89 -234.92,-100.83 -220.84,-271.75 320.75,189.73 361.22,20.23 361.22,-252.19l218.1 0z"/>
  </g>
 </g>
</svg>
